<svg xmlns="http://www.w3.org/2000/svg" viewBox="0 0 16 16" fill="none">
  <path d="M1.25 3.15C3.6 2.45 5.55 2.95 8 4.55V13.65C5.72 12.2 3.52 11.78 1.25 12.48V3.15Z" stroke="currentColor" stroke-width="1.2" stroke-linejoin="round"/>
  <path d="M14.75 3.15C12.4 2.45 10.45 2.95 8 4.55V13.65C10.28 12.2 12.48 11.78 14.75 12.48V3.15Z" stroke="currentColor" stroke-width="1.2" stroke-linejoin="round"/>
  <path d="M8 4.55V13.65" stroke="currentColor" stroke-width="1.1" stroke-linecap="round"/>
  <path d="M2.9 5.35C4.2 5.08 5.3 5.28 6.35 5.92M2.9 7.25C4.2 6.98 5.3 7.18 6.35 7.82M9.65 8.02C10.7 7.38 11.8 7.18 13.1 7.45M9.65 9.92C10.7 9.28 11.8 9.08 13.1 9.35" stroke="currentColor" stroke-width=".8" stroke-linecap="round" opacity=".72"/>
  <path d="M10.7 2.05H13.15V6.75L11.92 5.86 10.7 6.75V2.05Z" fill="currentColor"/>
</svg>
